PathFileType	4	(X/Y/Z)	RBDS09\RBDS09runT25.trc
DataRate	CameraRate	NumFrames	NumMarkers	Units	OrigDataRate	OrigDataStartFrame	OrigNumFrames
150.000000	150.000000	4	33	mm	150.000000	3937	4500
Frame#	Time	L.ASIS			L.Heel.Bottom			L.Heel.Lateral			L.Heel.Top			L.Iliac.Crest			L.MT1			L.MT5			L.PSIS			L.Shank.Bottom.Lateral			L.Shank.Bottom.Medial			L.Shank.Top.Lateral			L.Shank.Top.Medial			L.Thigh.Bottom.Lateral			L.Thigh.Bottom.Medial			L.Thigh.Top.Lateral			L.Thigh.Top.Medial			R.ASIS			R.ASY			R.Heel.Bottom			R.Heel.Lateral			R.Heel.Top			R.Iliac.Crest			R.MT1			R.MT5			R.PSIS			R.Shank.Bottom.Lateral			R.Shank.Bottom.Medial			R.Shank.Top.Lateral			R.Shank.Top.Medial			R.Thigh.Bottom.Lateral			R.Thigh.Bottom.Medial			R.Thigh.Top.Lateral			R.Thigh.Top.Medial			
		X1	Y1	Z1	X2	Y2	Z2	X3	Y3	Z3	X4	Y4	Z4	X5	Y5	Z5	X6	Y6	Z6	X7	Y7	Z7	X8	Y8	Z8	X9	Y9	Z9	X10	Y10	Z10	X11	Y11	Z11	X12	Y12	Z12	X13	Y13	Z13	X14	Y14	Z14	X15	Y15	Z15	X16	Y16	Z16	X17	Y17	Z17	X18	Y18	Z18	X19	Y19	Z19	X20	Y20	Z20	X21	Y21	Z21	X22	Y22	Z22	X23	Y23	Z23	X24	Y24	Z24	X25	Y25	Z25	X26	Y26	Z26	X27	Y27	Z27	X28	Y28	Z28	X29	Y29	Z29	X30	Y30	Z30	X31	Y31	Z31	X32	Y32	Z32	X33	Y33	Z33	

3938	26.24666666666667	2245.351218612863	1017.762650552487	903.5385807004562	2131.003995970723	152.1087017042765	972.7807622631275	2158.654475215649	158.5868664665269	923.6165696866885	2150.754678907869	196.6929532541819	964.9453383660023	2170.740288858184	1083.68303685926	868.8237554034869	2342.656580487286	108.164240649911	967.9695634276969	2285.531490605027	105.235658195434	873.4008663908068	2093.131196430093	1040.890686886278	986.5562796421128	2217.838824645786	279.99603798252	889.7337344035337	2191.021973702428	289.9172059427482	935.4565732224606	2230.861217162771	358.5230933963592	877.7165715522455	2204.770036498861	369.1467822826259	923.7949772610508	2277.999821210452	670.8024486213807	851.7242602255536	2232.834394995897	641.1553274941477	901.795251611052	2213.796476532108	760.6392463591533	849.7350337382618	2172.881451828126	733.7607534060738	899.3649032745816	2262.662330693278	988.8369501779443	1133.424228311555	1922.519188795407	119.705083696151	1104.418420153907	1756.228708607596	176.9166076338615	1055.378299260624	1786.028945076986	170.6329569496835	1107.139489647247	1792.040520802178	208.8413946918695	1063.50707595392	2233.94745695021	1052.040379317584	1169.810385068321	1932.910856894008	61.50325580893526	1055.621543036044	1878.801890386839	69.24877882925887	1153.21572617063	2101.87271214821	1034.962713119033	1061.132631813916	1855.169349732328	273.6032687849503	1122.090594767844	1843.254047323042	286.4207740071552	1073.614454311394	1882.360478359087	353.4140528997095	1134.275341883643	1868.335560918881	362.5593516566248	1083.398684807545	2073.691979130514	625.9351059012631	1164.884035694153	2017.414150165515	643.2790517267111	1122.59380985912	2095.054389590838	733.846904566793	1176.211395412238	2043.148598156619	749.7553074299226	1134.018129596422	
3939	26.25333333333333	2245.97938590419	1020.184889472185	903.2165405854278	2149.864387203933	138.2946259016431	971.983573620315	2177.37513378389	146.0771448235736	922.9361893241874	2166.995443224042	183.9335664047101	963.9370860657576	2171.547872622784	1087.720055687134	869.1108148227374	2363.609588285617	107.0364393797164	968.9651002480026	2307.524595328979	99.87862155183358	874.0734251419891	2094.484007677489	1044.053609603824	986.875359377512	2229.08029021653	271.7514562436556	889.4616918535654	2201.906853160632	280.0917684632026	935.2384740770103	2237.628849241059	350.7706023745419	877.282680504846	2211.04640002053	359.8657436140774	923.4556093311695	2272.619389969413	669.9508874286613	852.8505572634097	2227.295956271807	641.6097102917806	903.4682898916112	2210.490433389719	761.2617244163221	850.7455393803623	2169.520578526683	735.7015815515296	900.9139291951899	2264.425515161633	991.6859875935891	1132.530362997528	1911.881468042114	124.9053096090366	1104.688864609778	1747.534613711561	189.0111090049054	1057.027696949878	1777.453406450857	181.1303530294282	1108.546199316881	1784.71191477677	219.4556218142074	1065.184320028075	2237.158883960535	1056.798215372579	1168.672816371962	1920.001505027788	66.67756468534513	1055.506030008921	1866.655190066047	75.38472686345635	1153.14282267414	2103.630053382772	1038.424418796512	1061.525929739569	1848.757069498891	281.0627541789576	1123.388955370706	1836.840735055048	294.0462868538084	1074.963741734133	1877.592111553528	360.3231925002336	1135.312478109132	1863.27916633762	369.7069753422165	1084.542748565307	2072.994487786611	629.8735956025786	1165.000737264641	2016.683874471636	647.8526183422553	1123.043283360397	2095.553361869693	737.630715673193	1176.373651280565	2043.601137033015	754.039520529967	1134.396802534417	
3940	26.26	2246.493693212034	1022.128857080274	902.8433129402661	2168.163455279122	125.5301513909294	971.1871079390837	2195.495869111182	134.573493879033	922.2606569304174	2182.705524552993	172.0441195038074	962.9396721294102	2172.156636563402	1090.949880166729	869.3569066473228	2383.245914580745	106.7088455435283	969.9710913958278	2328.433206844922	95.45796053452172	874.7575956711781	2095.627792757421	1046.619444753718	987.2354780707901	2239.742240226878	264.0393446666893	889.2385430692111	2212.181917360291	270.8524245147908	934.9936087350681	2243.878774671468	343.2765227911852	876.9253996495723	2216.791479599921	350.9108413493428	923.1042172703123	2266.851016456726	668.5287422614588	854.0587036580995	2221.554777843629	641.6602403786146	905.4218462036457	2206.878913519053	761.2894986956189	851.8197858967729	2166.013796363129	737.1840049988486	902.6762053500865	2265.9604618644	994.2715640378426	1131.697656892619	1901.137679763493	130.5919986272232	1104.635577285618	1738.859952034634	201.1602212526164	1058.854104739084	1768.928214681053	191.7427197010948	1110.047285135561	1777.301767005926	230.136555611367	1066.925445609488	2239.565411051377	1061.405383148739	1167.629112150496	1907.022131968707	72.50812569120279	1055.065455034013	1854.640792862983	82.02219786067167	1152.928624610054	2105.138096509424	1041.348883872083	1061.968012548713	1842.697272396069	288.5781529440357	1124.677977961473	1830.731772926506	301.8825461199759	1076.364326169725	1873.578407698383	367.0656405884047	1136.386795662704	1858.951764920423	376.8548082500717	1085.778797344771	2073.638240746433	632.7512537660172	1165.000112731019	2017.111837966437	651.1182757481085	1123.549981320451	2096.901270741507	740.4214258957422	1176.509977483024	2044.698667214823	757.1164020626186	1134.949044015271	
3941	26.26666666666667	2246.88250538596	1023.6073482355	902.4079847054354	2185.618631511145	113.8829601932809	970.464726802691	2212.723290072826	124.1426610422894	921.6482462655267	2197.640919981746	161.1001911495334	962.0308723168962	2172.565830776854	1093.350470365565	869.5273937790247	2401.360058843571	107.0499617778383	970.8994589243838	2347.949977524323	91.93526542228155	875.4026677426473	2096.548351742638	1048.57412350087	987.6102494090471	2249.637263884547	256.9368471213192	889.1131954085648	2221.68452990071	262.2684466645354	934.7977007967545	2249.487830696212	336.1526759561181	876.7355960671219	2221.903765967978	342.3868234110828	922.8533349353997	2260.829999276392	666.6635349150697	855.3554115361983	2215.732259631051	641.3983822356762	907.6210020960585	2203.045012409454	760.8184319774761	852.9481377702932	2162.434745892033	738.2643490472885	904.6119208872386	2267.263081149289	996.5574325450933	1130.916712814374	1890.320929321269	136.7423590239312	1104.307202334778	1730.247482570996	213.4210155389997	1060.83965910492	1760.478752304607	202.5009932410864	1111.637297696839	1769.860420298811	240.9269859403974	1068.730908929185	2241.18174507999	1065.767853110453	1166.687608815863	1893.969401725938	78.95542736297196	1054.330523991306	1842.730271056451	89.14772512969688	1152.605553331571	2106.382188876636	1043.701630181274	1062.435648241321	1837.006979283821	296.1883084349013	1125.958088378394	1824.971625254778	309.9589615332025	1077.807766912214	1870.307577506065	373.6628761033426	1137.489440327086	1855.369933019471	384.0175048238189	1087.091109194869	2075.60589136728	634.521899100682	1164.860042562253	2018.685063280112	653.0250658053671	1124.071674342223	2099.068538981035	742.1747303504767	1176.604510292871	2046.419321387049	758.944183328435	1135.646802429097	
